<svg xmlns="http://www.w3.org/2000/svg" viewBox="0 0 360 480" role="img" aria-label="Mappa Italia">
  <rect width="360" height="480" fill="#080808"/>
  <g fill="none" stroke="#5d6065" stroke-width="3.2" stroke-linecap="round" stroke-linejoin="round" opacity=".98">
    <path d="M14 107 30 76 61 58 76 35 101 24 120 7 142 15 164 4 189 20 220 16 243 34 274 37 297 60 330 68 345 96 331 121 300 128 278 153 249 154 235 184 204 173 183 188 154 175 135 188 109 176 94 144 69 145 50 130 22 126Z"/>
    <path d="M94 144c27-13 48 2 67 16 17 12 32 13 48 23 20 12 28 34 23 56-6 25-2 45 18 62 20 18 47 28 61 56 11 22 4 46-17 59 24 13 44 32 50 55-52-3-101-12-153-20-34-5-65-10-77-20-7-6 4-19 28-31 22-11 52-18 84-16 3-15-11-32-36-47-24-14-49-30-65-54-16-25-17-55-6-85 10-28-4-55-25-80Z"/>
    <path d="M56 239c28-25 66-12 79 29 14 43-3 98-39 128-31 26-64 11-75-31-10-39 3-98 35-126Z"/>
    <path d="M138 430c32-20 76-22 126-9 43 11 73 31 79 51-63-4-126-13-188-24-24-4-31-9-17-18Z"/>
    <path d="M101 24c8 35 31 60 61 70 26 9 47 30 68 55 18 22 32 45 47 76"/>
    <path d="M61 58c40 19 78 17 117-2"/>
    <path d="M50 130c40-4 71-20 96-35"/>
    <path d="M109 176c30-25 63-23 98-3"/>
    <path d="M135 188c2 28 16 50 42 67"/>
    <path d="M177 255c28 5 52 22 73 46"/>
    <path d="M232 239c-22 39-17 76 19 114"/>
    <path d="M278 153c-4 45 8 78 36 103"/>
    <path d="M56 239c26 24 43 60 45 102"/>
    <path d="M138 430c58 9 119 18 178 34"/>
  </g>
</svg>
