<svg xmlns="http://www.w3.org/2000/svg" viewBox="0 0 340 320" role="img" aria-label="Mappa Italia stilizzata">
  <rect width="340" height="320" fill="#050505"/>
  <g fill="none" stroke="#5f6369" stroke-width="3" stroke-linecap="round" stroke-linejoin="round" opacity=".96">
    <path d="M9 43 17 38 9 31 21 25 35 27 34 17 45 20 50 10 63 14 73 4 86 13 99 8 110 16 123 15 127 23 141 23 154 32 170 31 181 22 196 27 207 38 220 42 226 53 241 56 248 68 261 76 266 92 280 103 283 119 296 134 294 150 309 162 306 176 293 183 280 177 269 178 259 190 262 205 249 212 237 201 226 202 216 192 207 197 198 189 192 178 181 175 175 165 165 159 160 147 150 141 143 129 133 122 126 111 116 105 108 94 98 88 90 77 79 70 74 57 64 52 55 40 43 38 36 48 23 49 19 60 8 54Z"/>
    <path d="M86 84c16 24 31 39 51 53 17 12 28 28 32 47 4 20 15 36 34 50 17 13 33 27 42 48 4 11 4 22-2 31"/>
    <path d="M134 136c21 14 34 29 42 49 7 17 17 30 35 44 23 18 43 37 51 62"/>
    <path d="M160 147c17 7 31 21 40 37 9 17 19 29 37 40 15 9 25 23 31 41"/>
    <path d="M185 198c-14 18-14 41-1 63 9 15 22 28 39 39"/>
    <path d="M226 202c-16 13-20 31-13 51 5 16 17 30 33 42"/>
    <path d="M64 52c8 34 27 58 56 73"/>
    <path d="M37 48c28 12 56 15 87 10"/>
    <path d="M18 60c34 13 64 13 92 1"/>
    <path d="M62 116c24-16 51-17 80-4"/>
    <path d="M92 154c29-18 60-16 93 6"/>
    <path d="M112 198c17-12 38-12 61 1"/>
    <path d="M170 31c-12 22-11 45 4 69"/>
    <path d="M220 42c-16 20-20 44-10 72"/>
    <path d="M248 68c-11 29-9 57 7 84"/>
    <path d="M259 190c-8 25-5 48 10 70"/>
    <path d="M37 164c27-15 56-4 71 29 17 39 7 86-25 111-28 21-58 8-70-30-12-39-2-90 24-110Z"/>
    <path d="M151 288c26-15 67-14 104 3 23 11 35 24 33 36-45-5-93-10-136-18-23-4-24-10-1-21Z"/>
    <path d="M44 167c16 22 27 50 32 82"/>
    <path d="M23 201c25 19 43 47 51 83"/>
    <path d="M156 289c45 4 84 12 119 27"/>
  </g>
</svg>
